/* XPM */
static char * closeI_xpm[] = {
"16 44 24 1",
" 	c None",
".	c #989898",
"+	c #FAFAFA",
"@	c #F4F4F4",
"#	c #F3F3F3",
"$	c #A3A3A3",
"%	c #F2F2F2",
"&	c #FDFDFD",
"*	c #FCFCFC",
"=	c #FBFBFB",
"-	c #F9F9F9",
";	c #F8F8F8",
">	c #F6F6F6",
",	c #F5F5F5",
"'	c #F1F1F1",
")	c #EFEFEF",
"!	c #F0F0F0",
"~	c #EEEEEE",
"{	c #EDEDED",
"]	c #ECECEC",
"^	c #EBEBEB",
"/	c #EAEAEA",
"(	c #E9E9E9",
"_	c #E8E8E8",
"................",
"++++++++++++++++",
"@@@@@@@@@@@@@@@@",
"################",
"################",
"$$$$$$$$$$$$$%%%",
"$&*=+-;>,@#%$%%%",
"$*=+-;>,@#%'$'''",
"$=+-;>,@#%')$!!!",
"$+-;>,@#%')~$!!!",
"$-;>,@#%')~{$)))",
"$;>,@#%')~{]$~~~",
"$>,@#%')~{]^$~~~",
"$,@#%')~{]^/${{{",
"$@#%')~{]^/($]]]",
"$#%')~{]^/(_$]]]",
"$%')~{]^/(__$^^^",
"$$$$$$$$$$$$$^^^",
"////////////////",
"((((((((((((((((",
"((((((((((((((((",
"................",
"................",
"++++++++++++++++",
"@@@@@@@@@@@@@@@@",
"################",
"################",
"$$$$$$$$$$$$$%%%",
"$__(/^]{~)'%$%%%",
"$_(/^]{~)'%#$'''",
"$(/^]{~)'%#@$!!!",
"$/^]{~)'%#@,$!!!",
"$^]{~)'%#@,>$)))",
"$]{~)'%#@,>;$~~~",
"${~)'%#@,>;-$~~~",
"$~)'%#@,>;-+${{{",
"$)'%#@,>;-+=$]]]",
"$'%#@,>;-+=*$]]]",
"$%#@,>;-+=*&$^^^",
"$$$$$$$$$$$$$^^^",
"////////////////",
"((((((((((((((((",
"((((((((((((((((",
"................"};
