/* XPM */
static char * closeA_xpm[] = {
"16 44 42 1",
" 	c None",
".	c #4A4A4A",
"+	c #B8B8B8",
"@	c #9C9C9C",
"#	c #999999",
"$	c #969696",
"%	c #484848",
"&	c #939393",
"*	c #C7C7C7",
"=	c #C2C2C2",
"-	c #BCBCBC",
";	c #B7B7B7",
">	c #B2B2B2",
",	c #ADADAD",
"'	c #A8A8A8",
")	c #A3A3A3",
"!	c #9E9E9E",
"~	c #989898",
"{	c #949494",
"]	c #909090",
"^	c #8E8E8E",
"/	c #898989",
"(	c #8B8B8B",
"_	c #848484",
":	c #888888",
"<	c #7F7F7F",
"[	c #858585",
"}	c #7A7A7A",
"|	c #828282",
"1	c #757575",
"2	c #808080",
"3	c #707070",
"4	c #7D7D7D",
"5	c #6A6A6A",
"6	c #666666",
"7	c #777777",
"8	c #747474",
"9	c #717171",
"0	c #6E6E6E",
"a	c #6C6C6C",
"b	c #818181",
"c	c #494949",
"................",
"++++++++++++++++",
"@@@@@@@@@@@@@@@@",
"################",
"$$$$$$$$$$$$$$$$",
"%%%%%%%%%%%%%&&&",
"%*=-;>,')!~{%]]]",
"%=-;>,')!~{^%^^^",
"%-;>,')!~{^/%(((",
"%;>,')!~{^/_%:::",
"%>,')!~{^/_<%[[[",
"%,')!~{^/_<}%|||",
"%')!~{^/_<}1%222",
"%)!~{^/_<}13%444",
"%!~{^/_<}135%}}}",
"%~{^/_<}1356%777",
"%{^/_<}13566%888",
"%%%%%%%%%%%%%999",
"0000000000000000",
"aaaaaaaaaaaaaaaa",
"bbbbbbbbbbbbbbbb",
"cccccccccccccccc",
"................",
"++++++++++++++++",
"@@@@@@@@@@@@@@@@",
"################",
"$$$$$$$$$$$$$$$$",
"%%%%%%%%%%%%%&&&",
"%66531}<_/^{%]]]",
"%6531}<_/^{~%^^^",
"%531}<_/^{~!%(((",
"%31}<_/^{~!)%:::",
"%1}<_/^{~!)'%[[[",
"%}<_/^{~!)',%|||",
"%<_/^{~!)',>%222",
"%_/^{~!)',>;%444",
"%/^{~!)',>;-%}}}",
"%^{~!)',>;-=%777",
"%{~!)',>;-=*%888",
"%%%%%%%%%%%%%999",
"0000000000000000",
"aaaaaaaaaaaaaaaa",
"bbbbbbbbbbbbbbbb",
"cccccccccccccccc"};
