/* XPM */
static char *dummy[]={
"30 30 5 1",
"b c None",
"c c #6c6c6c",
". c #989898",
"a c #e8e8e8",
"# c #f0f0f0",
".#aa.bbbbbbbbbbbbbbbbbbbbbbbbb",
".#aa.bbbbbbbbbbbbbbbbbbbbbbbbb",
".#aa.bbbbbbbbbbbbbbbbbbbbbbbbb",
".#aa.bbbbbbbbbbbbbbbbbbbbbbbbb",
".#aa.bbbbbbbbbbbbbbbbbbbbbbbbb",
".#aa.bbbbbbbbbbbbbbbbbbbbbbbbb",
".#aa.bbbbbbbbbbbbbbbbbbbbbbbbb",
".#aa.bbbbbbbbbbbbbbbbbbbbbbbbb",
".#aa.bbbbbbbbbbbbbbbbbbbbbbbbb",
".#aa.bbbbbbbbbbbbbbbbbbbbbbbbb",
".#aa.bbbbbbbbbbbbbbbbbbbbbbbbb",
".#aa.bbbbbbbbbbbbbbbbbbbbbbbbb",
".#aa.bbbbbbbbbbbbbbbbbbbbbbbbb",
".#aa.bbbbbbbbbbbbbbbbbbbbbbbbb",
".#aa.bbbbbbbbbbbbbbbbbbbbbbbbb",
".#aa.bbbbbbbbbbbbbbbbbbbbbbbbb",
".#aa.bbbbbbbbbbbbbbbbbbbbbbbbb",
".#aa.bbbbbbbbbbbbbbbbbbbbbbbbb",
".#aa.bbbbbbbbbbbbbbbbbbbbbbbbb",
".#aa.bbbbbbbbbbbbbbbbbbbbbbbbb",
".#aa.bbbbbbbbbbbbbbbbbbbbbbbbb",
".#aa.bbbbbbbbbbbbbbbbbbbbbbbbb",
".#aa.bbbbbbbbbbbbbbbbbbbbbbbbb",
".#aa.bbbbbbbbbbbbbbbbbbbbbbbbb",
".#aa.bbbbbbbbbbbbbbbbbbbbbbbbb",
".#aa..........................",
".#a###########################",
".#aaaaaaaaaaaaaaaaaaaaaaaaaaaa",
".aaaaaaaaaaaaaaaaaaaaaaaaaaaaa",
"cccccccccccccccccccccccccccccc"};
