/* XPM */
static char * frameAB_xpm[] = {
"5 5 5 1",
" 	c None",
".	c #494949",
"+	c #818181",
"@	c #696969",
"#	c #B8B8B8",
".....",
"+++++",
"@@@@@",
"#####",
"....."};
