/* XPM */
static char * frameAR_xpm[] = {
"5 5 6 1",
" 	c None",
".	c #494949",
"+	c #818181",
"@	c #696969",
"#	c #B8B8B8",
"$	c #4A4A4A",
".+@#$",
".+@#$",
".+@#$",
".+@#$",
".+@#$"};
