/* XPM */
static char *dummy[]={
"30 30 5 1",
". c None",
"c c #6c6c6c",
"# c #989898",
"a c #e8e8e8",
"b c #f0f0f0",
".........................#aab#",
".........................#aab#",
".........................#aab#",
".........................#aab#",
".........................#aab#",
".........................#aab#",
".........................#aab#",
".........................#aab#",
".........................#aab#",
".........................#aab#",
".........................#aab#",
".........................#aab#",
".........................#aab#",
".........................#aab#",
".........................#aab#",
".........................#aab#",
".........................#aab#",
".........................#aab#",
".........................#aab#",
".........................#aab#",
".........................#aab#",
".........................#aab#",
".........................#aab#",
".........................#aab#",
".........................#aab#",
"##########################aab#",
"bbbbbbbbbbbbbbbbbbbbbbbbbbbab#",
"aaaaaaaaaaaaaaaaaaaaaaaaaaaab#",
"aaaaaaaaaaaaaaaaaaaaaaaaaaaaa#",
"cccccccccccccccccccccccccccccc"};
