/* XPM */
static char * maximizeI_xpm[] = {
"16 44 38 1",
" 	c None",
".	c #989898",
"+	c #FAFAFA",
"@	c #F4F4F4",
"#	c #F3F3F3",
"$	c #A3A3A3",
"%	c #F2F2F2",
"&	c #FCFCFC",
"*	c #F9F9F9",
"=	c #F6F6F6",
"-	c #F0F0F0",
";	c #EDEDED",
">	c #F1F1F1",
",	c #EAEAEA",
"'	c #E8E8E8",
")	c #F8F8F8",
"!	c #F5F5F5",
"~	c #EFEFEF",
"{	c #EEEEEE",
"]	c #ECECEC",
"^	c #EBEBEB",
"/	c #E9E9E9",
"(	c #8A8A8A",
"_	c #E3E3E3",
":	c #E0E0E0",
"<	c #DDDDDD",
"[	c #DADADA",
"}	c #D7D7D7",
"|	c #D4D4D4",
"1	c #D1D1D1",
"2	c #CFCFCF",
"3	c #DFDFDF",
"4	c #DCDCDC",
"5	c #D8D8D8",
"6	c #D5D5D5",
"7	c #D3D3D3",
"8	c #D2D2D2",
"9	c #D0D0D0",
"................",
"++++++++++++++++",
"@@@@@@@@@@@@@@@@",
"################",
"################",
"$$$$$$$%%%%%%%%%",
"$&*=#-$%%%%%%%%%",
"$*=#-;$>>>>>>>>>",
"$=#-;,$$$$$$$---",
"$#-;,'$)=!#>$---",
"$-;,''$=!#>-$~~~",
"$$$$$$$!#>-{${{{",
"{{{$)=!#>-{]${{{",
";;;$=!#>-{]^$;;;",
"]]]$!#>-{]^/$]]]",
"]]]$#>-{]^/'$]]]",
"^^^$>-{]^/''$^^^",
"^^^$$$$$$$$$$^^^",
",,,,,,,,,,,,,,,,",
"////////////////",
"////////////////",
"................",
"................",
"++++++++++++++++",
"@@@@@@@@@@@@@@@@",
"################",
"################",
"(((((((%%%%%%%%%",
"(_:<[}(%%%%%%%%%",
"(:<[}|(>>>>>>>>>",
"(<[}|1(((((((---",
"([}|12(3<4[5(---",
"(}|122(<4[5}(~~~",
"(((((((4[5}6({{{",
"{{{(3<4[5}67({{{",
";;;(<4[5}678(;;;",
"]]](4[5}6789(]]]",
"]]]([5}67892(]]]",
"^^^(5}678922(^^^",
"^^^((((((((((^^^",
",,,,,,,,,,,,,,,,",
"////////////////",
"////////////////",
"................"};
