/* XPM */
static char * maximizeA_xpm[] = {
"16 44 40 1",
" 	c None",
".	c #4A4A4A",
"+	c #B8B8B8",
"@	c #9C9C9C",
"#	c #999999",
"$	c #969696",
"%	c #484848",
"&	c #939393",
"*	c #BFBFBF",
"=	c #B2B2B2",
"-	c #A5A5A5",
";	c #989898",
">	c #8C8C8C",
",	c #909090",
"'	c #7F7F7F",
")	c #8E8E8E",
"!	c #727272",
"~	c #8B8B8B",
"{	c #666666",
"]	c #AEAEAE",
"^	c #A7A7A7",
"/	c #A0A0A0",
"(	c #919191",
"_	c #888888",
":	c #8A8A8A",
"<	c #858585",
"[	c #838383",
"}	c #828282",
"|	c #808080",
"1	c #7B7B7B",
"2	c #7D7D7D",
"3	c #747474",
"4	c #7A7A7A",
"5	c #6D6D6D",
"6	c #777777",
"7	c #717171",
"8	c #6E6E6E",
"9	c #6C6C6C",
"0	c #818181",
"a	c #494949",
"................",
"++++++++++++++++",
"@@@@@@@@@@@@@@@@",
"################",
"$$$$$$$$$$$$$$$$",
"%%%%%%%&&&&&&&&&",
"%*=-;>%,,,,,,,,,",
"%=-;>'%)))))))))",
"%-;>'!%%%%%%%~~~",
"%;>'!{%]^/;(%___",
"%>'!{{%^/;(:%<<<",
"%%%%%%%/;(:[%}}}",
"|||%]^/;(:[1%|||",
"222%^/;(:[13%222",
"444%/;(:[135%444",
"666%;(:[135{%666",
"333%(:[135{{%333",
"777%%%%%%%%%%777",
"8888888888888888",
"9999999999999999",
"0000000000000000",
"aaaaaaaaaaaaaaaa",
"aaaaaaaaaaaaaaaa",
"++++++++++++++++",
"@@@@@@@@@@@@@@@@",
"################",
"$$$$$$$$$$$$$$$$",
"%%%%%%%&&&&&&&&&",
"%{{!'>%,,,,,,,,,",
"%{!'>;%)))))))))",
"%!'>;-%%%%%%%~~~",
"%'>;-=%135{{%___",
"%>;-=*%[135{%<<<",
"%%%%%%%:[135%}}}",
"|||%[:((:[13%|||",
"222%:(;;(:[1%222",
"444%(;//;(:[%444",
"666%;/^^/;(:%666",
"333%/^]]^/;(%333",
"777%%%%%%%%%%777",
"8888888888888888",
"9999999999999999",
"0000000000000000",
"aaaaaaaaaaaaaaaa"};
