/* XPM */
static char *dummy[]={
"1 21 15 1",
". c #989898",
"# c #999999",
"a c #9b9b9b",
"b c #9c9c9c",
"c c #9d9d9d",
"d c #9e9e9e",
"e c #9f9f9f",
"f c #a0a0a0",
"g c #a1a1a1",
"h c #a2a2a2",
"i c #a4a4a4",
"j c #a5a5a5",
"k c #a6a6a6",
"l c #a7a7a7",
"m c #a8a8a8",
".",
".",
"#",
"#",
"a",
"b",
"c",
"c",
"d",
"e",
"e",
"f",
"g",
"h",
"h",
"i",
"j",
"j",
"k",
"l",
"m"};
