/* XPM */
static char * menuButtonA_xpm[] = {
"25 44 23 1",
" 	c None",
".	c #4A4A4A",
"+	c #B8B8B8",
"@	c #9C9C9C",
"#	c #999999",
"$	c #969696",
"%	c #939393",
"&	c #909090",
"*	c #8E8E8E",
"=	c #8B8B8B",
"-	c #888888",
";	c #858585",
">	c #828282",
",	c #808080",
"'	c #7D7D7D",
")	c #7A7A7A",
"!	c #777777",
"~	c #747474",
"{	c #717171",
"]	c #6E6E6E",
"^	c #6C6C6C",
"/	c #818181",
"(	c #494949",
".........................",
"+++++++++++++++++++++++++",
"@@@@@@@@@@@@@@@@@@@@@@@@@",
"#########################",
"$$$$$$$$$$$$$$$$$$$$$$$$$",
"%%%%%%%%%%%%%%%%%%%%%%%%%",
"&&&&&&&&&&&&&&&&&&&&&&&&&",
"*************************",
"=========================",
"-------------------------",
";;;;;;;;;;;;;;;;;;;;;;;;;",
">>>>>>>>>>>>>>>>>>>>>>>>>",
",,,,,,,,,,,,,,,,,,,,,,,,,",
"'''''''''''''''''''''''''",
")))))))))))))))))))))))))",
"!!!!!!!!!!!!!!!!!!!!!!!!!",
"~~~~~~~~~~~~~~~~~~~~~~~~~",
"{{{{{{{{{{{{{{{{{{{{{{{{{",
"]]]]]]]]]]]]]]]]]]]]]]]]]",
"^^^^^^^^^^^^^^^^^^^^^^^^^",
"/////////////////////////",
"(((((((((((((((((((((((((",
".........................",
"+++++++++++++++++++++++++",
"@@@@@@@@@@@@@@@@@@@@@@@@@",
"#########################",
"$$$$$$$$$$$$$$$$$$$$$$$$$",
"%%%%%%%%%%%%%%%%%%%%%%%%%",
"&&&&&&&&&&&&&&&&&&&&&&&&&",
"*************************",
"=========================",
"-------------------------",
";;;;;;;;;;;;;;;;;;;;;;;;;",
">>>>>>>>>>>>>>>>>>>>>>>>>",
",,,,,,,,,,,,,,,,,,,,,,,,,",
"'''''''''''''''''''''''''",
")))))))))))))))))))))))))",
"!!!!!!!!!!!!!!!!!!!!!!!!!",
"~~~~~~~~~~~~~~~~~~~~~~~~~",
"{{{{{{{{{{{{{{{{{{{{{{{{{",
"]]]]]]]]]]]]]]]]]]]]]]]]]",
"^^^^^^^^^^^^^^^^^^^^^^^^^",
"/////////////////////////",
"((((((((((((((((((((((((("};
