/* XPM */
static char * minimizeA_xpm[] = {
"16 44 40 1",
" 	c None",
".	c #4A4A4A",
"+	c #B8B8B8",
"@	c #9C9C9C",
"#	c #999999",
"$	c #969696",
"%	c #939393",
"&	c #909090",
"*	c #8E8E8E",
"=	c #8B8B8B",
"-	c #888888",
";	c #858585",
">	c #828282",
",	c #808080",
"'	c #7D7D7D",
")	c #484848",
"!	c #7A7A7A",
"~	c #BBBBBB",
"{	c #B6B6B6",
"]	c #B0B0B0",
"^	c #ACACAC",
"/	c #A6A6A6",
"(	c #A1A1A1",
"_	c #979797",
":	c #929292",
"<	c #8D8D8D",
"[	c #777777",
"}	c #9F9F9F",
"|	c #9A9A9A",
"1	c #959595",
"2	c #8A8A8A",
"3	c #7B7B7B",
"4	c #767676",
"5	c #717171",
"6	c #6D6D6D",
"7	c #747474",
"8	c #6E6E6E",
"9	c #6C6C6C",
"0	c #818181",
"a	c #494949",
"................",
"++++++++++++++++",
"@@@@@@@@@@@@@@@@",
"################",
"$$$$$$$$$$$$$$$$",
"%%%%%%%%%%%%%%%%",
"&&&&&&&&&&&&&&&&",
"****************",
"================",
"----------------",
";;;;;;;;;;;;;;;;",
">>>>>>>>>>>>>>>>",
",,,,,,,,,,,,,,,,",
"''''''''''''''''",
")))))))))))))!!!",
")~{]^/(@_:<-)[[[",
")}|1&2;,3456)777",
")))))))))))))555",
"8888888888888888",
"9999999999999999",
"0000000000000000",
"aaaaaaaaaaaaaaaa",
".......aaaaaaaaa",
"++++++++++++++++",
"@@@@@@@@@@@@@@@@",
"################",
"$$$$$$$$$$$$$$$$",
"%%%%%%%%%%%%%%%%",
"&&&&&&&&&&&&&&&&",
"****************",
"================",
"----------------",
";;;;;;;;;;;;;;;;",
">>>>>>>>>>>>>>>>",
",,,,,,,,,,,,,,,,",
"''''''''''''''''",
")))))))))))))!!!",
")6543,;2&1|})[[[",
")-<:_@(/^]{~)777",
")))))))))))))555",
"8888888888888888",
"9999999999999999",
"0000000000000000",
"aaaaaaaaaaaaaaaa"};
