/* XPM */
static char * minimizeI_xpm[] = {
"16 44 38 1",
" 	c None",
".	c #989898",
"+	c #FAFAFA",
"@	c #F4F4F4",
"#	c #F3F3F3",
"$	c #F2F2F2",
"%	c #F1F1F1",
"&	c #F0F0F0",
"*	c #EFEFEF",
"=	c #EEEEEE",
"-	c #EDEDED",
";	c #A3A3A3",
">	c #ECECEC",
",	c #F9F9F9",
"'	c #F8F8F8",
")	c #F7F7F7",
"!	c #F6F6F6",
"~	c #EBEBEB",
"{	c #EAEAEA",
"]	c #E9E9E9",
"^	c #8A8A8A",
"/	c #E1E1E1",
"(	c #E0E0E0",
"_	c #DFDFDF",
":	c #DEDEDE",
"<	c #DDDDDD",
"[	c #DBDBDB",
"}	c #DADADA",
"|	c #D9D9D9",
"1	c #D8D8D8",
"2	c #D7D7D7",
"3	c #D6D6D6",
"4	c #D5D5D5",
"5	c #D4D4D4",
"6	c #D3D3D3",
"7	c #D2D2D2",
"8	c #D1D1D1",
"9	c #D0D0D0",
"................",
"++++++++++++++++",
"@@@@@@@@@@@@@@@@",
"################",
"################",
"$$$$$$$$$$$$$$$$",
"$$$$$$$$$$$$$$$$",
"%%%%%%%%%%%%%%%%",
"&&&&&&&&&&&&&&&&",
"&&&&&&&&&&&&&&&&",
"****************",
"================",
"================",
"----------------",
";;;;;;;;;;;;;>>>",
";+,')!@#$%&*;>>>",
";@#$&*=->~{];~~~",
";;;;;;;;;;;;;~~~",
"{{{{{{{{{{{{{{{{",
"]]]]]]]]]]]]]]]]",
"]]]]]]]]]]]]]]]]",
"................",
"................",
"++++++++++++++++",
"@@@@@@@@@@@@@@@@",
"################",
"################",
"$$$$$$$$$$$$$$$$",
"$$$$$$$$$$$$$$$$",
"%%%%%%%%%%%%%%%%",
"&&&&&&&&&&&&&&&&",
"&&&&&&&&&&&&&&&&",
"****************",
"================",
"================",
"----------------",
"^^^^^^^^^^^^^>>>",
"^/(_:<[}|123^>>>",
"^[}|23456789^~~~",
"^^^^^^^^^^^^^~~~",
"{{{{{{{{{{{{{{{{",
"]]]]]]]]]]]]]]]]",
"]]]]]]]]]]]]]]]]",
"................"};
