/* XPM */
static char * restoreI_xpm[] = {
"16 44 31 1",
" 	c None",
".	c #989898",
"+	c #FAFAFA",
"@	c #F4F4F4",
"#	c #F3F3F3",
"$	c #8A8A8A",
"%	c #F2F2F2",
"&	c #E3E3E3",
"*	c #E0E0E0",
"=	c #DDDDDD",
"-	c #DADADA",
";	c #D7D7D7",
">	c #D4D4D4",
",	c #F1F1F1",
"'	c #D1D1D1",
")	c #F0F0F0",
"!	c #CFCFCF",
"~	c #DFDFDF",
"{	c #DCDCDC",
"]	c #D8D8D8",
"^	c #EFEFEF",
"/	c #D5D5D5",
"(	c #EEEEEE",
"_	c #D3D3D3",
":	c #EDEDED",
"<	c #D2D2D2",
"[	c #ECECEC",
"}	c #D0D0D0",
"|	c #EBEBEB",
"1	c #EAEAEA",
"2	c #E9E9E9",
"................",
"++++++++++++++++",
"@@@@@@@@@@@@@@@@",
"################",
"################",
"$$$$$$$%%%%%%%%%",
"$&*=-;$%%%%%%%%%",
"$*=-;>$,,,,,,,,,",
"$=-;>'$$$$$$$)))",
"$-;>'!$~={-]$)))",
"$;>'!!$={-];$^^^",
"$$$$$$${-];/$(((",
"((($~={-];/_$(((",
":::$={-];/_<$:::",
"[[[${-];/_<}$[[[",
"[[[$-];/_<}!$[[[",
"|||$];/_<}!!$|||",
"|||$$$$$$$$$$|||",
"1111111111111111",
"2222222222222222",
"2222222222222222",
"................",
"................",
"++++++++++++++++",
"@@@@@@@@@@@@@@@@",
"################",
"################",
"$$$$$$$%%%%%%%%%",
"$&*=-;$%%%%%%%%%",
"$*=-;>$,,,,,,,,,",
"$=-;>'$$$$$$$)))",
"$-;>'!$~={-]$)))",
"$;>'!!$={-];$^^^",
"$$$$$$${-];/$(((",
"((($~={-];/_$(((",
":::$={-];/_<$:::",
"[[[${-];/_<}$[[[",
"[[[$-];/_<}!$[[[",
"|||$];/_<}!!$|||",
"|||$$$$$$$$$$|||",
"1111111111111111",
"2222222222222222",
"2222222222222222",
"................"};
