/* XPM */
static char * restoreA_xpm[] = {
"16 44 38 1",
" 	c None",
".	c #4A4A4A",
"+	c #B8B8B8",
"@	c #9C9C9C",
"#	c #999999",
"$	c #969696",
"%	c #3E3E3E",
"&	c #939393",
"*	c #ABABAB",
"=	c #9E9E9E",
"-	c #919191",
";	c #848484",
">	c #787878",
",	c #909090",
"'	c #6B6B6B",
")	c #8E8E8E",
"!	c #5E5E5E",
"~	c #8B8B8B",
"{	c #5C5C5C",
"]	c #9A9A9A",
"^	c #8C8C8C",
"/	c #7D7D7D",
"(	c #888888",
"_	c #767676",
":	c #858585",
"<	c #6F6F6F",
"[	c #828282",
"}	c #808080",
"|	c #676767",
"1	c #606060",
"2	c #7A7A7A",
"3	c #777777",
"4	c #747474",
"5	c #717171",
"6	c #6E6E6E",
"7	c #6C6C6C",
"8	c #818181",
"9	c #494949",
"................",
"++++++++++++++++",
"@@@@@@@@@@@@@@@@",
"################",
"$$$$$$$$$$$$$$$$",
"%%%%%%%&&&&&&&&&",
"%*=-;>%,,,,,,,,,",
"%=-;>'%)))))))))",
"%-;>'!%%%%%%%~~~",
"%;>'!{%]&^;/%(((",
"%>'!{{%&^;/_%:::",
"%%%%%%%^;/_<%[[[",
"}}}%]&^;/_<|%}}}",
"///%&^;/_<|1%///",
"222%^;/_<|1{%222",
"333%;/_<|1{{%333",
"444%/_<|1{{{%444",
"555%%%%%%%%%%555",
"6666666666666666",
"7777777777777777",
"8888888888888888",
"9999999999999999",
"................",
"++++++++++++++++",
"@@@@@@@@@@@@@@@@",
"################",
"$$$$$$$$$$$$$$$$",
"%%%%%%%&&&&&&&&&",
"%*=-;>%,,,,,,,,,",
"%=-;>'%)))))))))",
"%-;>'!%%%%%%%~~~",
"%;>'!{%]&^;/%(((",
"%>'!{{%&^;/_%:::",
"%%%%%%%^;/_<%[[[",
"}}}%]&^;/_<|%}}}",
"///%&^;/_<|1%///",
"222%^;/_<|1{%222",
"333%;/_<|1{{%333",
"444%/_<|1{{{%444",
"555%%%%%%%%%%555",
"6666666666666666",
"7777777777777777",
"8888888888888888",
"9999999999999999"};
