/* XPM */
static char * desktop_xpm[] = {
"20 20 107 2",
"  	c None",
". 	c #46516B",
"+ 	c #5C5F62",
"@ 	c #6B6B67",
"# 	c #696B65",
"$ 	c #696965",
"% 	c #696964",
"& 	c #4E5567",
"* 	c #3E4966",
"= 	c #3B455E",
"- 	c #A1A49D",
"; 	c #BFC1AE",
"> 	c #BDBFAD",
", 	c #BBBDAB",
"' 	c #BABBAA",
") 	c #B8BAA8",
"! 	c #B6B8A7",
"~ 	c #B4B6A5",
"{ 	c #B0B1A1",
"] 	c #7C8386",
"^ 	c #444D63",
"/ 	c #5C5C5A",
"( 	c #BABCAC",
"_ 	c #B3B5A1",
": 	c #B1B3A0",
"< 	c #B0B29E",
"[ 	c #AEB09C",
"} 	c #ACAE9A",
"| 	c #AAAC99",
"1 	c #A8AA97",
"2 	c #A6A895",
"3 	c #A4A693",
"4 	c #A2A492",
"5 	c #B4B6A4",
"6 	c #AEB09D",
"7 	c #ACAE9B",
"8 	c #ABAD99",
"9 	c #A9AB98",
"0 	c #A7A996",
"a 	c #A5A794",
"b 	c #A3A592",
"c 	c #A1A391",
"d 	c #9FA18F",
"e 	c #9D9F8D",
"f 	c #969887",
"g 	c #595953",
"h 	c #ABAD9A",
"i 	c #A2A491",
"j 	c #A0A28F",
"k 	c #9EA08E",
"l 	c #9C9E8C",
"m 	c #9A9C8A",
"n 	c #989A88",
"o 	c #505054",
"p 	c #A9AB9E",
"q 	c #A4A694",
"r 	c #A1A390",
"s 	c #9FA18E",
"t 	c #9B9D8B",
"u 	c #999B89",
"v 	c #979987",
"w 	c #959786",
"x 	c #939584",
"y 	c #919382",
"z 	c #5E6E8D",
"A 	c #525E72",
"B 	c #9D9F8E",
"C 	c #9C9E8B",
"D 	c #969886",
"E 	c #949684",
"F 	c #929483",
"G 	c #909281",
"H 	c #8E907F",
"I 	c #898A7B",
"J 	c #596376",
"K 	c #4B5E7E",
"L 	c #454B61",
"M 	c #5E7491",
"N 	c #4D6685",
"O 	c #5B6169",
"P 	c #919383",
"Q 	c #8E9080",
"R 	c #8D8F7E",
"S 	c #8C8D7C",
"T 	c #8A8C7B",
"U 	c #888A79",
"V 	c #868878",
"W 	c #848676",
"X 	c #828475",
"Y 	c #5D626D",
"Z 	c #5E79A0",
"` 	c #5877A0",
" .	c #343E5A",
"..	c #2C3349",
"+.	c #353F54",
"@.	c #363C4A",
"#.	c #474744",
"$.	c #454742",
"%.	c #454542",
"&.	c #454541",
"*.	c #444541",
"=.	c #444441",
"-.	c #44443F",
";.	c #42443F",
">.	c #3A3E4C",
",.	c #333D53",
"'.	c #2A3349",
"                                        ",
"                                        ",
"                                        ",
"                                        ",
"                                        ",
"        . . + @ # $ $ $ % & . *         ",
"      = . - ; > , ' ) ! ~ { ] ^         ",
"      / ( _ : < [ } | 1 2 3 4 /         ",
"      / 5 6 7 8 9 0 a b c d e f g       ",
"      / h 9 0 2 3 i j k l m n f /       ",
"    o p 2 q 4 r s e t u v w x y /       ",
"    z A B d e C m n D E F G H I J K     ",
"  L M N O x P Q R S T U V W X Y Z `  .  ",
"  ..+.+.@.#.$.%.&.&.*.=.-.-.;.>.,.,.'.  ",
"                                        ",
"                                        ",
"                                        ",
"                                        ",
"                                        ",
"                                        "};
