/* XPM */
static char * icewm_xpm[] = {
"79 22 457 2",
"  	c None",
". 	c #F7F7F7",
"+ 	c #E7E7E7",
"@ 	c #EBEBEB",
"# 	c #ECEBEB",
"$ 	c #EBECEB",
"% 	c #ECECEB",
"& 	c #ECEBEC",
"* 	c #EBECEC",
"= 	c #EBEBEC",
"- 	c #ECECEC",
"; 	c #C6C6C6",
"> 	c #EAEBEB",
", 	c #EBEAEA",
"' 	c #EBEBEA",
") 	c #EAEBEA",
"! 	c #EBEAEB",
"~ 	c #EAEAEB",
"{ 	c #EAEAEA",
"] 	c #EAE9EA",
"^ 	c #E9EAE9",
"/ 	c #E9EAEA",
"( 	c #E9E9EA",
"_ 	c #EAEAE9",
": 	c #EAE9E9",
"< 	c #E8E9E9",
"[ 	c #D4BEBF",
"} 	c #BB7C83",
"| 	c #BD858B",
"1 	c #C3969A",
"2 	c #CEAEB0",
"3 	c #E1D8DA",
"4 	c #E9E7E8",
"5 	c #E9E9E9",
"6 	c #E8E8E7",
"7 	c #E6E5E5",
"8 	c #DDD0D2",
"9 	c #D2B8BA",
"0 	c #E9E8E9",
"a 	c #DDD2D3",
"b 	c #B87179",
"c 	c #A80030",
"d 	c #B5656E",
"e 	c #C39498",
"f 	c #C5999C",
"g 	c #BA787F",
"h 	c #A91335",
"i 	c #B76F77",
"j 	c #E0D5D6",
"k 	c #E9E9E8",
"l 	c #B3B3B2",
"m 	c #858585",
"n 	c #8A8A8A",
"o 	c #BEBEBE",
"p 	c #919091",
"q 	c #3C3C3C",
"r 	c #E8E8E8",
"s 	c #DED2D2",
"t 	c #AC394B",
"u 	c #D0B6B8",
"v 	c #E8E8E9",
"w 	c #E8E9E8",
"x 	c #DFD5D6",
"y 	c #AC394A",
"z 	c #AF4C59",
"A 	c #D6C4C4",
"B 	c #DBCECF",
"C 	c #AE4855",
"D 	c #AD4553",
"E 	c #E1DBDB",
"F 	c #E9E8E8",
"G 	c #A4A4A4",
"H 	c #000000",
"I 	c #8F908F",
"J 	c #B9B9B9",
"K 	c #343434",
"L 	c #E5E1E2",
"M 	c #B7737A",
"N 	c #AD404F",
"O 	c #DDD1D2",
"P 	c #E7E8E7",
"Q 	c #E7E8E8",
"R 	c #E5E3E2",
"S 	c #BA7C82",
"T 	c #C08B90",
"U 	c #E4E1E2",
"V 	c #E7E7E8",
"W 	c #E8E7E7",
"X 	c #DACDCE",
"Y 	c #A80A33",
"Z 	c #C4999E",
"` 	c #AEAEAD",
" .	c #9A9999",
"..	c #CACACA",
"+.	c #4C4C4C",
"@.	c #E8E7E8",
"#.	c #E3E0E0",
"$.	c #DED5D5",
"%.	c #E7E7E6",
"&.	c #E6E6E6",
"*.	c #E6E6E7",
"=.	c #D4BFC0",
"-.	c #B77077",
";.	c #E5E5E4",
">.	c #E7E6E6",
",.	c #E6E7E6",
"'.	c #D7C6C7",
").	c #D5C1C4",
"!.	c #DDD4D6",
"~.	c #BC8086",
"{.	c #CDB1B3",
"].	c #E7E6E7",
"^.	c #E6E7E7",
"/.	c #E0E1E0",
"(.	c #D3D3D4",
"_.	c #D3D3D3",
":.	c #AEADAD",
"<.	c #A1A1A1",
"[.	c #DDDEDD",
"}.	c #CECECF",
"|.	c #D7D7D8",
"1.	c #CDCDCC",
"2.	c #595959",
"3.	c #E2E2E3",
"4.	c #D1D1D2",
"5.	c #E0E0E1",
"6.	c #DADADB",
"7.	c #D7D7D7",
"8.	c #D0D1D0",
"9.	c #D3D4D3",
"0.	c #E5E4E4",
"a.	c #E1E1E0",
"b.	c #DBDBDB",
"c.	c #E5E5E5",
"d.	c #D8D7D8",
"e.	c #CFCFCF",
"f.	c #E2E3E2",
"g.	c #E6E6E5",
"h.	c #E5E6E6",
"i.	c #E6E5E6",
"j.	c #BB8086",
"k.	c #D3BEBF",
"l.	c #E5E6E5",
"m.	c #D6C8C9",
"n.	c #DED5D6",
"o.	c #E4E4E5",
"p.	c #CAA9AC",
"q.	c #C9A4A6",
"r.	c #E5E5E6",
"s.	c #E5E4E5",
"t.	c #A1A1A2",
"u.	c #2C2B2C",
"v.	c #A6A6A7",
"w.	c #E1E2E2",
"x.	c #8C8C8D",
"y.	c #0A0A0A",
"z.	c #797979",
"A.	c #DEDFDE",
"B.	c #CECECE",
"C.	c #5C5C5C",
"D.	c #4B4B4B",
"E.	c #1D1D1D",
"F.	c #ACACAC",
"G.	c #D9D9D8",
"H.	c #616162",
"I.	c #252525",
"J.	c #BABABA",
"K.	c #E4E3E3",
"L.	c #99999A",
"M.	c #3B3B3A",
"N.	c #4A4A4A",
"O.	c #C8C8C8",
"P.	c #E0E0E0",
"Q.	c #616261",
"R.	c #181818",
"S.	c #B4B4B4",
"T.	c #787878",
"U.	c #484848",
"V.	c #D5D5D4",
"W.	c #E4E5E5",
"X.	c #B15862",
"Y.	c #E3DFDF",
"Z.	c #CEB4B6",
"`.	c #E4E4E4",
" +	c #E3E3E3",
".+	c #CAAAAD",
"++	c #C3999D",
"@+	c #E4E5E4",
"#+	c #ABABAB",
"$+	c #626262",
"%+	c #C3C2C3",
"&+	c #CBCACB",
"*+	c #848384",
"=+	c #A7A6A7",
"-+	c #8F8F8F",
";+	c #B2B2B1",
">+	c #DCDCDB",
",+	c #999999",
"'+	c #A0A09F",
")+	c #D0D0D0",
"!+	c #636363",
"~+	c #8C8C8C",
"{+	c #6C6C6C",
"]+	c #CDCCCD",
"^+	c #4E4E4E",
"/+	c #C3C3C3",
"(+	c #7B7B7B",
"_+	c #B0B0B0",
":+	c #BDBDBD",
"<+	c #858586",
"[+	c #616161",
"}+	c #747474",
"|+	c #585858",
"1+	c #A3A3A3",
"2+	c #B7B8B7",
"3+	c #50504F",
"4+	c #9FA0A0",
"5+	c #E4E3E4",
"6+	c #E3E4E3",
"7+	c #B56C73",
"8+	c #E4E4E3",
"9+	c #C9A9AC",
"0+	c #E3E2E2",
"a+	c #C59C9F",
"b+	c #D9CCCD",
"c+	c #E3E4E4",
"d+	c #E2E2E2",
"e+	c #444444",
"f+	c #CFCFCE",
"g+	c #D7D8D8",
"h+	c #656565",
"i+	c #D2D2D2",
"j+	c #AAAAA9",
"k+	c #545454",
"l+	c #5D5D5D",
"m+	c #C9C9C9",
"n+	c #DDDDDC",
"o+	c #7E7E7E",
"p+	c #A5A6A5",
"q+	c #888888",
"r+	c #E3E2E3",
"s+	c #E3E3E2",
"t+	c #B67077",
"u+	c #E2E1E1",
"v+	c #C59EA2",
"w+	c #E0DDDD",
"x+	c #E0DCDC",
"y+	c #DCD3D3",
"z+	c #BE878C",
"A+	c #E1E0E0",
"B+	c #D1D1D1",
"C+	c #474747",
"D+	c #AAAAAA",
"E+	c #A7A7A7",
"F+	c #8B8B8B",
"G+	c #353535",
"H+	c #D5D5D6",
"I+	c #9C9C9C",
"J+	c #878787",
"K+	c #E2E3E3",
"L+	c #D9D9D9",
"M+	c #DADADA",
"N+	c #2B2B2B",
"O+	c #DDDDDD",
"P+	c #838383",
"Q+	c #A9A9A9",
"R+	c #AFAFAF",
"S+	c #848484",
"T+	c #BB7F85",
"U+	c #DAD1D2",
"V+	c #E2E0E0",
"W+	c #D9CFD1",
"X+	c #BF8D93",
"Y+	c #D5C4C5",
"Z+	c #DAD0D1",
"`+	c #CBACAF",
" @	c #C59DA0",
".@	c #E0DFDE",
"+@	c #C6C5C5",
"@@	c #696969",
"#@	c #373838",
"$@	c #5A5A5A",
"%@	c #121212",
"&@	c #CCCCCC",
"*@	c #7C7C7C",
"=@	c #C7C7C7",
"-@	c #D1D2D2",
";@	c #252424",
">@	c #DCDCDC",
",@	c #888889",
"'@	c #B2B2B2",
")@	c #E2E2E1",
"!@	c #E2E1E2",
"~@	c #E1E2E1",
"{@	c #E1E1E1",
"]@	c #E1E1E2",
"^@	c #BF8D92",
"/@	c #D9CECF",
"(@	c #D0B9BB",
"_@	c #CEB7B9",
":@	c #DBD4D5",
"<@	c #C1C2C1",
"[@	c #A6A7A7",
"}@	c #A9A8A8",
"|@	c #605F5F",
"1@	c #A0A0A0",
"2@	c #A0A1A1",
"3@	c #A0A1A0",
"4@	c #CFCECF",
"5@	c #3D3D3D",
"6@	c #B3B3B3",
"7@	c #6B6C6B",
"8@	c #C7C6C7",
"9@	c #212120",
"0@	c #AEAEAF",
"a@	c #D6D6D7",
"b@	c #3A393A",
"c@	c #DCDCDD",
"d@	c #848383",
"e@	c #DCD7D7",
"f@	c #AA2A40",
"g@	c #D6CACB",
"h@	c #E0E1E1",
"i@	c #393939",
"j@	c #E1E0E1",
"k@	c #A1A0A0",
"l@	c #7C7B7B",
"m@	c #9E9E9F",
"n@	c #676767",
"o@	c #C6C5C6",
"p@	c #BBBBBB",
"q@	c #DEDEDE",
"r@	c #171717",
"s@	c #DCDDDC",
"t@	c #B3B4B3",
"u@	c #B3B2B3",
"v@	c #828283",
"w@	c #E0DFDF",
"x@	c #DFDFE0",
"y@	c #E0E0DF",
"z@	c #E0DFE0",
"A@	c #DFDFDF",
"B@	c #C6A4A8",
"C@	c #C19699",
"D@	c #DFE0E0",
"E@	c #DFE0DF",
"F@	c #D8D8D8",
"G@	c #111211",
"H@	c #CBCBCB",
"I@	c #919191",
"J@	c #989898",
"K@	c #C9C8C8",
"L@	c #323232",
"M@	c #DBDCDB",
"N@	c #CECDCE",
"O@	c #424243",
"P@	c #828281",
"Q@	c #C1C1C2",
"R@	c #C4C4C4",
"S@	c #ADADAE",
"T@	c #949494",
"U@	c #C8C8C9",
"V@	c #DAD9D9",
"W@	c #868686",
"X@	c #B1B2B2",
"Y@	c #828282",
"Z@	c #DFDEDE",
"`@	c #DEDEDF",
" #	c #DEDFDF",
".#	c #DFDEDF",
"+#	c #DEDDDD",
"@#	c #BB8085",
"##	c #CFB9BC",
"$#	c #DFDFDE",
"%#	c #737273",
"&#	c #727171",
"*#	c #D4D4D4",
"=#	c #CAC9C9",
"-#	c #424242",
";#	c #909090",
">#	c #616061",
",#	c #8E8E8E",
"'#	c #DCDBDC",
")#	c #3C3D3C",
"!#	c #CDCDCD",
"~#	c #272727",
"{#	c #626362",
"]#	c #5E5E5E",
"^#	c #C2C3C2",
"/#	c #B9B8B8",
"(#	c #505050",
"_#	c #D3D2D2",
":#	c #D4D3D4",
"<#	c #787879",
"[#	c #2A2A2A",
"}#	c #838282",
"|#	c #ACABAC",
"1#	c #818181",
"2#	c #DEDEDD",
"3#	c #DDDEDE",
"4#	c #BE8E92",
"5#	c #CCB3B4",
"6#	c #DEDDDE",
"7#	c #DDDDDE",
"8#	c #C5C4C5",
"9#	c #232323",
"0#	c #090909",
"a#	c #808080",
"b#	c #737474",
"c#	c #C9C9C8",
"d#	c #404040",
"e#	c #434444",
"f#	c #6D6E6D",
"g#	c #5E5D5D",
"h#	c #C1C1C1",
"i#	c #202020",
"j#	c #9E9F9F",
"k#	c #484949",
"l#	c #CCCCCB",
"m#	c #434344",
"n#	c #9B9B9B",
"o#	c #515151",
"p#	c #AAAAAB",
"q#	c #A5A5A5",
"r#	c #DDDCDD",
"s#	c #DCDDDD",
"t#	c #D0BFC0",
"u#	c #C7AAAC",
"v#	c #D5CBCC",
"w#	c #DCD9DA",
"x#	c #C5C5C5",
"y#	c #898A89",
"z#	c #B7B7B7",
"A#	c #BFBFBF",
"B#	c #8B8C8C",
"C#	c #D3D3D2",
"D#	c #A1A2A2",
"E#	c #7D7D7D",
"F#	c #6E6D6E",
"G#	c #7D7E7E",
"H#	c #CECFCF",
"I#	c #707070",
"J#	c #7A7A7A",
"K#	c #A3A2A3",
"L#	c #D6D7D7",
"M#	c #929292",
"N#	c #B8B9B9",
"O#	c #8A8989",
"P#	c #AEAEAE",
"Q#	c #979797",
"R#	c #9B9A9B",
"S#	c #919190",
"T#	c #959495",
"U#	c #DBDCDC",
"V#	c #DBDBDC",
"W#	c #DCDBDB",
"X#	c #BAC1C6",
". . . . . . . . . . . . . . . . . . . . . . . . . . . . . . . . . . . . . . . . . . . . . . . . . . . . . . . . . . . . . . . . . . . . . . . . . . . . . . + ",
". @ # # @ # $ % % @ @ $ & * & & # # @ = * $ @ & # - $ = # $ $ % * # $ = - $ @ @ % # - % - * * & @ & $ % * - = % - # % & - $ @ = @ & @ @ & - % - = $ - # % = ; ",
". > , > @ ' @ ) @ ! ) ! ! ~ , @ ~ > ~ ) ) ~ @ ' ! ' > ! ' ' ' > @ , ~ ! ~ ' @ ! > @ ~ , > ! ' @ ) ~ ' ' , ! ! @ > ! ' { ) @ > ~ @ @ @ @ ~ > ) { @ ~ ! ) , ' ; ",
". ] ^ / { ( { _ : { < [ } | 1 2 3 4 { ] { / 5 { { { { { { { { : 6 { { { ^ { { ] { { { 7 / { { { : / { 8 9 _ / { { { { { { _ : ] ^ ^ : / 5 { { _ { { { ^ { ^ ; ",
". 5 0 5 < 5 5 5 5 a b c d e f g h i j 5 5 5 5 < 5 0 k 5 < 5 l m n 0 5 5 5 5 5 5 5 o p q r 5 5 0 0 < s t c u < k 5 5 5 5 0 5 5 5 k 5 5 5 5 5 5 5 < 5 0 < 5 5 ; ",
". r r r v r r w x y z A r r r r B C D E r F r w r v r F r r G H I r r F r r v r r J H K r v r r r r L M N O r r r r F r r r r r r r r r v r r w r r r r r v ; ",
". P P + + Q + R S T U V W + + W W X Y Z + + + W + W P W + W ` H  .6 + V + r P P + ..H +.+ @.P + W P V #.$.+ Q Q + + + + + W W + + V + + + P + W + + W + + + ; ",
". %.%.%.+ &.*.=.-.;.*.>.,.'.).!.&.&.~.{.,.,.].^.+ *.^./.(._.:.H <.^.+ ,.[.}.|.%.].1.H 2.].3.4.[.&.&.>.,.5.6.,.].&.7.8.9.0.*.%.&.].a.b.c.d.e.f.,.&.^.].>.>.&.; ",
". g.7 7 h.i.i.j.k.i.l.i.m.n.i.7 o.l.p.q.r.l.g.h.i.s.t.u.H H H H v.g.w.x.y.H H z.A.B.H C.e.D.H E.F.r.G.H.I.J.K.L.M.H H H N.O.l.P.Q.R.S.T.H H U.V.g.g.l.i.h.r.; ",
". W.W.c.;.s.c.X.Y.;.;.c.Z.`.W.0. +0..+++@+c.o.c.c.#+H $+%+&+*+H =+c.-+H ;+>+,+H '+)+H C.!+~+{+H H ]+s.^+H /+c.(+z._+:+<+H [+0.;.}+H |+1+2+3+H 4+s.;.@+c.;.s.; ",
". 5+`.5+6+`.5+7+`.`.8+`.9+5+`.`.0+8+a+b+c+K.8+6+d+e+H f+`.`.#+H v.g+y.h+`.5+>+H |+i+H y.j+5+P.k+H 4+`.l+H m+c+G.`.8+5+n+y.H P.5+o+H n `.`.p+H q+c+K.`.c+`.`.; ",
". r+ + + + +s+t+u+s+ +d+v+w+u+x+d+y+z+A+r+ + + +B+H C+ +r+ +D+H E+J H F+ + + +G+R.)+H H H+ + +I+H J+ +h+H O. +r+K+ +L+M+N+H O+ +P+H Q+ + +R+H S+ +r+ + + + +; ",
". d+d+d+d+f.f.T+U+0+f.V+W+X+Y+Z+`+ @.@s+d+d+d+3.+@H @@d+d+d+E+H E+#+H #@$@$@$@%@H &@H R.3.d+d+_+H *@3.{+H =@d+-@*@;@H H H H >@f.,@H '@3.d+'@H S+3.d+3.d+d+0+; ",
". )@!@~@{@]@~@9+^@5.{@u+u+/@(@_@:@{@w.w.~@{@d+!@<@H l+{@)@~@G H [@}@H |@1@1@2@3@2@4@H 5@{@~@{@6@H F+!@7@H 8@b.N.9@0@a@M+b@H c@u+~+H 6@w.{@6@H d@!@{@{@)@{@u+; ",
". 5.a.P.P.P.P.e@f@g@A+A+P.h@h@5.5.P././.{@P.A+P.O.H i@h@j@P.k@H 1@'@H l@/.h@j@5.j@}.H U.5.a.{@E+H m@A+n@H o@p@H F+P.P.q@r@H s@j@q+H t@/./.u@H v@/.A+P.A+j@/.; ",
". w@x@w@y@P.z@A@B@C@x@A@x@w@w@A@A@w@D@w@z@x@A@E@F@G@H H@w@E@I@H J@K@H L@M@z@z@A@w@N@H O@P.A@A@P@H Q@z@$+H R@S@H T@x@A@U@H H V@A@W@H '@w@z@X@H Y@y@w@A@z@x@z@; ",
". q@Z@`@q@Z@ #.#+#@###A@$#q@A. #A.A.A@A@A.A@.#Z@A.%#H &#*#=#-#H ;#Z@>#H ,#'#$#Z@7.H@H )# #A.!#~#{#+#.#]#H ^#/#H (#_#:#<#[#H F@.#}#H R+`@`@|#H 1#$#A.q@ #`@Z@; ",
". q@2#q@2#3#2#[.q@b.4#5#3#2#[.O+[.q@6#2#2#2#q@7#3#8#9#H H 0#a#H b#2#c#d#H e#T.f#g#h#H i#j#J@d#k#l#+#q@m#H J.d.C+H H H n#o#H i+2#z.H p#+#[.q#H T.q@7#q@6#3#6#; ",
". >@O+O+s@O+r#O+r#s@s#t#u#v#w#s@O+O+O+O+O+O+O+r#O+r#x#y#1#z#A#B#;#n+n+C#D#E#F#G#G H#I+a#I#J#K#L#s@O+F@,#M#N#r#&@O#Y@P#>+Q#,#=@r#R#S#S.O+O+u@M#T#O+O+O+r#O+O+; ",
". >@>@>@>@>@>@>@>@>@>@>+>@>@'#>@>@>@>@>@>@>@>@>@>@>@>@>@>@>@>@>@>@>@>@>@>@>@'#>@>@>@'#>+>@>@>@U#>@>@>@>@>@>@>@'#>@U#>+>@>+>@U#>@'#>@'#>+'#U#V#U#U#>@>@>@>@>@; ",
". >+V#'#>@>@>+>@>@M@V#>@b.b.V#'#V#'#>+'#'#V#>+'#>+U#M@U#V#W#U#>+>+'#V#M@>+V#U#U#'#>+>+W#b.M@'#V#U#U#'#W#>@>@>@V#U#>+W#>@U#W#W#>+M@U#b.W#'#V#>+W#V#>+b.M@b.U#; ",
"+ ; ; ; ; ; ; ; ; ; ; ; ; ; ; ; ; ; ; ; ; ; ; ; ; ; ; X#; ; ; ; ; ; ; ; ; ; ; ; ; ; ; ; ; ; ; ; ; ; ; ; ; ; ; ; ; ; ; ; ; ; ; ; ; ; ; ; ; ; ; ; ; ; ; ; ; ; ; "};
