/* XPM */
static char *dummy[]={
"2 24 12 1",
"j c #dbdbdb",
"i c #dcdcdc",
"h c #dddddd",
"g c #dedede",
"f c #dfdfdf",
"e c #e0e0e0",
"d c #e6e6e6",
"c c #e7e7e7",
"b c #e8e8e8",
"a c #e9e9e9",
"# c #eaeaea",
". c #f7f7f7",
"..",
"##",
"##",
"##",
"aa",
"aa",
"bb",
"bb",
"cc",
"cc",
"dd",
"dd",
"ee",
"ee",
"ff",
"gg",
"gg",
"hh",
"ii",
"ii",
"jj",
"jj",
"jj",
"jj"};
