/* XPM */
static char * taskbarbg_xpm[] = {
"2 30 46 1",
" 	c None",
".	c #6C6C6C",
"+	c #F7F7F7",
"@	c #EAEAEA",
"#	c #EBEAEA",
"$	c #EAEAE9",
"%	c #E9E9E9",
"&	c #E9E9E8",
"*	c #E8E9E8",
"=	c #E8E8E8",
"-	c #E8E7E8",
";	c #E7E7E8",
">	c #E7E8E7",
",	c #E7E7E7",
"'	c #E6E6E6",
")	c #E6E5E6",
"!	c #E6E5E5",
"~	c #E5E5E5",
"{	c #E4E4E4",
"]	c #E4E4E5",
"^	c #E3E3E3",
"/	c #E3E4E4",
"(	c #E2E2E3",
"_	c #E3E3E2",
":	c #E2E2E2",
"<	c #E2E2E1",
"[	c #E2E1E1",
"}	c #E1E1E1",
"|	c #E1E0E1",
"1	c #E0E1E1",
"2	c #DFE0E0",
"3	c #E0DFE0",
"4	c #DFE0DF",
"5	c #DFDEDF",
"6	c #DEDFDF",
"7	c #DEDEDE",
"8	c #DDDDDE",
"9	c #DDDEDD",
"0	c #DDDDDD",
"a	c #DCDCDC",
"b	c #DCDDDC",
"c	c #DBDCDC",
"d	c #DCDCDB",
"e	c #DBDCDB",
"f	c #DCDBDC",
"g	c #DBDBDC",
"..",
"++",
"@#",
"$$",
"%%",
"&*",
"=-",
";>",
",,",
"''",
")!",
"~~",
"{]",
"{{",
"^/",
"(_",
"::",
"<[",
"}}",
"|1",
"23",
"44",
"56",
"77",
"89",
"00",
"ab",
"cd",
"ec",
"fg"};
