/* XPM */
static char * windows_xpm[] = {
"20 20 25 1",
" 	c None",
".	c #949494",
"+	c #AEAEAE",
"@	c #FCFCFC",
"#	c #FBFBFB",
"$	c #F8F8F8",
"%	c #F7F7F7",
"&	c #F4F4F4",
"*	c #F2F2F2",
"=	c #EFEFEF",
"-	c #EDEDED",
";	c #EBEBEB",
">	c #E8E8E8",
",	c #6884AE",
"'	c #E4E4E4",
")	c #5D78A0",
"!	c #E0E0E0",
"~	c #FAFAFA",
"{	c #F9F9F9",
"]	c #F6F6F6",
"^	c #F3F3F3",
"/	c #F0F0F0",
"(	c #EAEAEA",
"_	c #E6E6E6",
":	c #E1E1E1",
"                    ",
"  ..........        ",
" .++++++++++.       ",
" .++++++++++.       ",
" .@#########.       ",
" .$%%%%%%%%%.       ",
" .&*********.       ",
" .=----..........   ",
" .;>>>.,,,,,,,,,,.  ",
" .>'''.)))))))))).  ",
" .'!!!.~{{{{{{{{{.  ",
"  .....]&&&&&&&&&.  ",
"      .^/////////.  ",
"      .=;;;;;;;;;.  ",
"      .(_________.  ",
"      ._:::::::::.  ",
"      .':::::::::.  ",
"       ..........   ",
"                    ",
"                    "};
