/* XPM */
static char *dummy[]={
"2 24 9 1",
". c #a8a8a8",
"# c #b8b8b8",
"a c #c0c0c0",
"b c #c1c1c1",
"c c #c2c2c2",
"d c #c3c3c3",
"e c #c4c4c4",
"f c #c5c5c5",
"g c #c6c6c6",
"..",
"##",
"aa",
"bb",
"bb",
"bb",
"bb",
"cc",
"cc",
"cc",
"cc",
"dd",
"dd",
"dd",
"ee",
"ee",
"ee",
"ff",
"ff",
"ff",
"ff",
"ff",
"gg",
"gg"};
