/* XPM */
static char * folder_xpm[] = {
"16 16 34 1",
" 	c None",
".	c #3C6698",
"+	c #729FCF",
"@	c #719FCF",
"#	c #719ECF",
"$	c #709ECF",
"%	c #6F9DCE",
"&	c #6E9DCE",
"*	c #6E9CCE",
"=	c #719DCE",
"-	c #6F9DCC",
";	c #6D9BCB",
">	c #6C99CA",
",	c #6A98C8",
"'	c #6A97C8",
")	c #6896C7",
"!	c #6794C5",
"~	c #6693C3",
"{	c #6A95C4",
"]	c #6491C1",
"^	c #325A8D",
"/	c #638CB8",
"(	c #5D87B8",
"_	c #A1C2E5",
":	c #5D84AE",
"<	c #587CA3",
"[	c #53769B",
"}	c #76A2D1",
"|	c #6B9BCD",
"1	c #6B9ACD",
"2	c #6A9ACD",
"3	c #6999CD",
"4	c #5B8DC6",
"5	c #345A8B",
"                ",
"                ",
" ......         ",
" .++@#.....     ",
" .+#$%%&***.    ",
" .=-;>,')!~.    ",
" .{]^^^^^^^^^^^ ",
" ./(^_________^ ",
" .:^^_++++++++^ ",
" .<^_+++++++++^ ",
" .[^_++++++++}^ ",
" .^_||1122223^  ",
" .^444444444^^  ",
"  5^^^^^^^^^    ",
"                ",
"                "};
